<?xml version="1.0" encoding="UTF-8"?>
<svg width="200px" height="185px" viewBox="0 0 200 185" version="1.1" xmlns="http://www.w3.org/2000/svg" xmlns:xlink="http://www.w3.org/1999/xlink">
    <!-- Generator: Sketch 49 (51002) - http://www.bohemiancoding.com/sketch -->
    <title>book</title>
    <desc>Created with Sketch.</desc>
    <defs></defs>
    <g id="Symbols" stroke="none" stroke-width="1" fill="none" fill-rule="evenodd">
        <g id="book">
            <path d="M196.673529,42.1785714 C194.997059,39.9390756 192.635714,38.2210084 189.592017,37.0210084 C189.754622,39.8214286 189.555882,42.1008403 188.995378,43.8617647 L153.007983,162.260504 C152.366807,164.339496 150.966387,165.998739 148.809664,167.238655 C146.64958,168.479412 144.410924,169.09916 142.091597,169.09916 L31.3697479,169.09916 C21.7731092,169.09916 16.0159664,166.304202 14.0957983,160.702101 C13.2962185,158.542437 13.3365546,156.82437 14.2168067,155.544538 C15.0957983,154.344118 16.6151261,153.742857 18.7756303,153.742857 L123.020168,153.742857 C130.457983,153.742857 135.595798,152.362605 138.435294,149.603361 C141.276891,146.844118 144.134874,140.705462 147.012185,131.189916 L179.881092,22.5054622 C181.639916,16.5878151 180.920588,11.3890756 177.721008,6.91176471 C174.521429,2.43445378 169.963866,0.194537815 164.045378,0.194537815 L72.757563,0.194537815 C71.7180672,0.194537815 69.6781513,0.553361345 66.6390756,1.27352941 C64.5189076,0.433613445 62.6193277,0.214285714 61.060084,0.252521008 C59.5012605,0.294117647 58.0613445,0.753361345 56.7420168,1.63445378 C55.4226891,2.51428571 54.3621849,3.45294118 53.5630252,4.45210084 C52.7634454,5.45210084 51.9827731,6.73193277 51.2235294,8.2907563 C50.4651261,9.85168067 49.8243697,11.2915966 49.3046218,12.6109244 C48.7848739,13.9302521 48.1844538,15.3306723 47.5058824,16.8117647 C46.8252101,18.2911765 46.1672269,19.5105042 45.5268908,20.4697479 C45.0466387,21.1096639 44.3680672,21.9491597 43.487395,22.9890756 C42.6088235,24.0285714 41.8886555,24.9487395 41.3289916,25.7483193 C40.7697479,26.5478992 40.4088235,27.2676471 40.25,27.9079832 C40.0911765,28.6268908 40.1701681,29.6865546 40.489916,31.0869748 C40.8092437,32.4852941 40.9298319,33.5042017 40.8487395,34.1445378 C40.5294118,37.1831933 39.4294118,41.0411765 37.5508403,45.7210084 C35.6722689,50.4 33.9710084,53.7798319 32.4521008,55.8579832 C32.1323529,56.2571429 31.2533613,57.1571429 29.8134454,58.5571429 C28.3735294,59.9563025 27.4941176,61.1747899 27.1752101,62.2142857 C26.855042,62.6138655 26.8348739,63.7340336 27.1147059,65.5731092 C27.3945378,67.4134454 27.4957983,68.6920168 27.4151261,69.4117647 C27.0936975,72.1315126 26.0957983,75.7298319 24.4155462,80.2088235 C22.7352941,84.6865546 21.0567227,88.3659664 19.3764706,91.2445378 C19.137395,91.7239496 18.4584034,92.6428571 17.337395,94.0037815 C16.2189076,95.3638655 15.5378151,96.4836134 15.2983193,97.3609244 C15.1386555,98.0008403 15.1596639,99.1205882 15.3588235,100.719748 C15.557563,102.318908 15.5378151,103.518067 15.2983193,104.317227 C14.6592437,107.354202 13.4592437,111.014706 11.6995798,115.294118 C9.94033613,119.570588 8.1407563,123.233613 6.3,126.269328 C5.82184874,127.070168 5.1605042,128.010924 4.32184874,129.089076 C3.48193277,130.167227 2.82268908,131.107983 2.34243697,131.907143 C1.86302521,132.706723 1.54285714,133.546218 1.38277311,134.426471 C1.30294118,134.906723 1.42394958,135.686134 1.74369748,136.767227 C2.06302521,137.845378 2.18361345,138.705042 2.10252101,139.347059 C2.02184874,140.465546 1.86302521,141.946639 1.62310924,143.786975 C1.38277311,145.62437 1.26218487,146.702521 1.26218487,147.021849 C-0.497058824,151.821849 -0.418067227,156.90042 1.50252101,162.260924 C3.74201681,168.495378 7.7197479,173.756723 13.4378151,178.034454 C19.1563025,182.313866 25.0932773,184.45042 31.2521008,184.45042 L141.97521,184.45042 C147.171429,184.45042 152.070168,182.710504 156.668908,179.233613 C161.267227,175.754202 164.327311,171.457563 165.844118,166.336134 L198.831933,57.6546218 C200.593277,51.894958 199.87437,46.7369748 196.673529,42.1785714 Z" id="Shape" fill="#933EC5" fill-rule="nonzero"></path>
            <text id="R" transform="translate(96.841764, 79.082412) rotate(20.000000) translate(-96.841764, -79.082412) " font-family="Avenir-Black, Avenir" font-size="72" font-weight="700" fill="#FFFFFF">
                <tspan x="73.3417636" y="102.082412">R</tspan>
            </text>
        </g>
    </g>
</svg>